<svg xmlns="http://www.w3.org/2000/svg" viewBox="0 0 24 24" fill="currentColor"><path d="M12 0C5.4 0 0 5.4 0 12c0 5.6 3.8 10.2 9 11.6l2.4-3.6c-0.4 0-0.8-0.2-1.2-0.4l-1.2 1.8C5.4 20.2 2.4 16.4 2.4 12c0-5.2 4.2-9.6 9.6-9.6s9.6 4.2 9.6 9.6c0 4.4-3 8.2-7.2 9.2l-1.2-1.8c-0.4 0.2-0.8 0.4-1.2 0.4l2.4 3.6c5.2-1.4 9-6 9-11.6C24 5.4 18.6 0 12 0zm0 4.8c-3.6 0-6.6 3-6.6 6.6s3 6.6 6.6 6.6 6.6-3 6.6-6.6-3-6.6-6.6-6.6zm0 2.4c2.4 0 4.2 1.8 4.2 4.2s-1.8 4.2-4.2 4.2-4.2-1.8-4.2-4.2 1.8-4.2 4.2-4.2z" fill="white"/></svg>
